<svg width="24" height="25" viewBox="0 0 24 25" fill="none" xmlns="http://www.w3.org/2000/svg">
<path fill-rule="evenodd" clip-rule="evenodd" d="M3 5.5C3 5.22386 3.17519 5 3.3913 5H20.6087C20.8248 5 21 5.22386 21 5.5C21 5.77614 20.8248 6 20.6087 6H3.3913C3.17519 6 3 5.77614 3 5.5ZM3 12.5C3 12.2239 3.17519 12 3.3913 12H20.6087C20.8248 12 21 12.2239 21 12.5C21 12.7761 20.8248 13 20.6087 13H3.3913C3.17519 13 3 12.7761 3 12.5ZM3.3913 19C3.17519 19 3 19.2239 3 19.5C3 19.7761 3.17519 20 3.3913 20H20.6087C20.8248 20 21 19.7761 21 19.5C21 19.2239 20.8248 19 20.6087 19H3.3913Z" fill="#24226A"/>
</svg>
