<svg width="152" height="31" viewBox="0 0 152 31" fill="none" xmlns="http://www.w3.org/2000/svg">
<path d="M0 17.0568L10.9181 3.7301L14.3294 8.35146L3.41125 21.6782L0 17.0568ZM10.9949 17.1283L21.913 3.8016L23.5483 6.01153L26.9596 10.6329L23.4673 14.8534L21.8512 12.6673L14.4125 21.7497L10.9949 17.1283ZM17.9773 26.0114L36.2702 3.8016L39.6814 8.42295L21.3886 30.6328L17.9773 26.0114Z" fill="#F55B41"/>
<path d="M63.8893 7.99686V21.2168H60.6691V13.2886L57.7124 21.2168H55.1137L52.1382 13.2698V21.2168H48.918V7.99686H52.722L56.4319 17.1491L60.1041 7.99686H63.8893Z" fill="#24226A"/>
<path d="M76.9392 10.7086L70.348 26.2073H66.883L69.2935 20.859L65.0186 10.7086H68.6155L71.0448 17.281L73.4553 10.7086H76.9392Z" fill="#24226A"/>
<path d="M82.887 21.3487C81.9203 21.3487 81.054 21.1917 80.2882 20.8779C79.5223 20.564 78.9072 20.0995 78.4426 19.4843C77.9907 18.8691 77.7521 18.1284 77.727 17.2621H81.1544C81.2047 17.7518 81.3741 18.1284 81.6629 18.392C81.9516 18.6431 82.3283 18.7687 82.7928 18.7687C83.2699 18.7687 83.6465 18.662 83.9227 18.4485C84.1989 18.2226 84.337 17.915 84.337 17.5258C84.337 17.1994 84.224 16.9294 83.998 16.716C83.7846 16.5026 83.5147 16.3268 83.1883 16.1887C82.8744 16.0506 82.4224 15.8937 81.8324 15.7179C80.9787 15.4543 80.2819 15.1906 79.742 14.927C79.2022 14.6633 78.7377 14.2741 78.3485 13.7594C77.9593 13.2447 77.7647 12.573 77.7647 11.7444C77.7647 10.5141 78.2104 9.55363 79.1018 8.86313C79.9931 8.16007 81.1544 7.80854 82.5857 7.80854C84.042 7.80854 85.2158 8.16007 86.1072 8.86313C86.9986 9.55363 87.4757 10.5203 87.5384 11.7632H84.0545C84.0294 11.3364 83.8725 11.0037 83.5837 10.7651C83.295 10.5141 82.9246 10.3885 82.4727 10.3885C82.0835 10.3885 81.7696 10.4952 81.5311 10.7086C81.2925 10.9095 81.1733 11.2046 81.1733 11.5937C81.1733 12.0206 81.3741 12.3533 81.7759 12.5918C82.1776 12.8304 82.8054 13.0877 83.6591 13.3639C84.5128 13.6527 85.2033 13.9289 85.7306 14.1925C86.2704 14.4562 86.7349 14.8391 87.1241 15.3413C87.5133 15.8435 87.7079 16.49 87.7079 17.281C87.7079 18.0342 87.5133 18.7185 87.1241 19.3336C86.7475 19.9488 86.1951 20.4384 85.4669 20.8025C84.7388 21.1666 83.8788 21.3487 82.887 21.3487Z" fill="#24226A"/>
<path d="M99.5952 15.7933C99.5952 16.0946 99.5764 16.4084 99.5387 16.7348H92.2508C92.301 17.3877 92.5082 17.8899 92.8723 18.2414C93.2489 18.5804 93.7071 18.7499 94.247 18.7499C95.0505 18.7499 95.6092 18.4109 95.923 17.7329H99.3504C99.1747 18.4234 98.8545 19.0449 98.39 19.5973C97.938 20.1497 97.3668 20.5828 96.6763 20.8967C95.9858 21.2106 95.2137 21.3675 94.36 21.3675C93.3305 21.3675 92.414 21.1478 91.6105 20.7084C90.807 20.269 90.1793 19.6412 89.7273 18.8252C89.2754 18.0091 89.0494 17.055 89.0494 15.9627C89.0494 14.8705 89.2691 13.9163 89.7085 13.1003C90.1605 12.2842 90.7882 11.6565 91.5917 11.2171C92.3952 10.7777 93.318 10.558 94.36 10.558C95.3769 10.558 96.2808 10.7714 97.0718 11.1983C97.8627 11.6251 98.4779 12.234 98.9173 13.025C99.3693 13.8159 99.5952 14.7387 99.5952 15.7933ZM96.2997 14.9458C96.2997 14.3934 96.1113 13.954 95.7347 13.6276C95.3581 13.3012 94.8873 13.138 94.3223 13.138C93.7825 13.138 93.3242 13.2949 92.9476 13.6088C92.5835 13.9226 92.3575 14.3683 92.2696 14.9458H96.2997Z" fill="#24226A"/>
<path d="M104.514 12.46C104.891 11.8825 105.362 11.4305 105.927 11.1041C106.492 10.7651 107.119 10.5957 107.81 10.5957V14.0042H106.925C106.121 14.0042 105.519 14.18 105.117 14.5315C104.715 14.8705 104.514 15.4731 104.514 16.3394V21.2168H101.294V10.7086H104.514V12.46Z" fill="#24226A"/>
<path d="M114.076 18.2037L116.355 10.7086H119.782L116.053 21.2168H112.08L108.351 10.7086H111.797L114.076 18.2037Z" fill="#24226A"/>
<path d="M122.757 9.6164C122.192 9.6164 121.727 9.45319 121.363 9.12677C121.012 8.7878 120.836 8.3735 120.836 7.88387C120.836 7.38169 121.012 6.96739 121.363 6.64097C121.727 6.30199 122.192 6.13251 122.757 6.13251C123.309 6.13251 123.761 6.30199 124.113 6.64097C124.477 6.96739 124.659 7.38169 124.659 7.88387C124.659 8.3735 124.477 8.7878 124.113 9.12677C123.761 9.45319 123.309 9.6164 122.757 9.6164ZM124.358 10.7086V21.2168H121.137V10.7086H124.358Z" fill="#24226A"/>
<path d="M136.597 15.7933C136.597 16.0946 136.578 16.4084 136.54 16.7348H129.252C129.303 17.3877 129.51 17.8899 129.874 18.2414C130.251 18.5804 130.709 18.7499 131.249 18.7499C132.052 18.7499 132.611 18.4109 132.925 17.7329H136.352C136.176 18.4234 135.856 19.0449 135.392 19.5973C134.94 20.1497 134.368 20.5828 133.678 20.8967C132.987 21.2106 132.215 21.3675 131.362 21.3675C130.332 21.3675 129.416 21.1478 128.612 20.7084C127.809 20.269 127.181 19.6412 126.729 18.8252C126.277 18.0091 126.051 17.055 126.051 15.9627C126.051 14.8705 126.271 13.9163 126.71 13.1003C127.162 12.2842 127.79 11.6565 128.593 11.2171C129.397 10.7777 130.32 10.558 131.362 10.558C132.379 10.558 133.282 10.7714 134.073 11.1983C134.864 11.6251 135.48 12.234 135.919 13.025C136.371 13.8159 136.597 14.7387 136.597 15.7933ZM133.301 14.9458C133.301 14.3934 133.113 13.954 132.736 13.6276C132.36 13.3012 131.889 13.138 131.324 13.138C130.784 13.138 130.326 13.2949 129.949 13.6088C129.585 13.9226 129.359 14.3683 129.271 14.9458H133.301Z" fill="#24226A"/>
<path d="M141.516 12.46C141.893 11.8825 142.363 11.4305 142.928 11.1041C143.493 10.7651 144.121 10.5957 144.812 10.5957V14.0042H143.926C143.123 14.0042 142.52 14.18 142.119 14.5315C141.717 14.8705 141.516 15.4731 141.516 16.3394V21.2168H138.296V10.7086H141.516V12.46Z" fill="#24226A"/>
</svg>
