<svg width="24" height="24" viewBox="0 0 24 24" fill="none" xmlns="http://www.w3.org/2000/svg">
<g clip-path="url(#clip0_16235_107061)">
<path d="M19.8213 5.39453H4.17825C3.18288 5.39453 2.37598 6.15407 2.37598 7.091V16.9486C2.37598 17.8856 3.18288 18.6451 4.17825 18.6451H19.8213C20.8167 18.6451 21.6236 17.8856 21.6236 16.9486V7.091C21.6236 6.15407 20.8167 5.39453 19.8213 5.39453Z" stroke="#24226A" stroke-width="0.86" stroke-miterlimit="10"/>
<path d="M2.70823 6.61352L11.3171 15.1123C11.6934 15.4829 12.3233 15.4829 12.6907 15.1123L21.2822 6.58881C21.5971 6.26763 21.3171 6.05352 21.0372 5.70763C20.8622 5.48528 20.5822 5.35352 20.2848 5.35352H3.96807C3.7406 5.35352 3.53062 5.42763 3.35564 5.56763L3.18942 5.6994C2.76947 6.02881 2.34077 6.25116 2.71697 6.62175L2.70823 6.61352Z" stroke="#24226A" stroke-width="0.86" stroke-miterlimit="10"/>
</g>
<defs>
<clipPath id="clip0_16235_107061">
<rect width="20" height="14" fill="white" transform="translate(2 5)"/>
</clipPath>
</defs>
</svg>
